<svg xmlns="http://www.w3.org/2000/svg" width="512" height="512" fill="none" viewBox="0 0 512 512"><style>@media (prefers-color-scheme:dark){path{fill:#fff}}</style><path fill="#000" d="M255.978 432a27 27 0 0 1-13.516-3.623l-43.041-25.475c-6.421-3.594-3.283-4.87-1.172-5.618 8.575-2.977 10.305-3.666 19.467-8.858.953-.543 2.214-.338 3.196.249l33.072 19.639c1.202.66 2.888.66 3.988 0l128.931-74.448c1.202-.689 1.964-2.068 1.964-3.49V181.511a4.16 4.16 0 0 0-2.008-3.55l-128.873-74.388c-1.187-.69-2.77-.69-3.972 0l-128.843 74.403c-1.247.719-2.038 2.127-2.038 3.535v148.865c0 1.422.791 2.772 2.038 3.446l35.314 20.416c19.161 9.592 30.903-1.701 30.903-13.053V194.212c0-2.083 1.671-3.711 3.753-3.711h16.345c2.038 0 3.738 1.643 3.738 3.711v146.973c0 25.593-13.926 40.26-38.173 40.26-7.447 0-13.326 0-29.701-8.082l-33.834-19.462C105.16 349.076 100 340.041 100 330.376V181.511c0-9.666 5.175-18.7 13.516-23.511l128.931-74.535c8.166-4.62 18.999-4.62 27.091 0L398.455 158C406.81 162.825 412 171.845 412 181.511v148.865c0 9.665-5.19 18.67-13.545 23.525l-128.917 74.476c-4.105 2.391-8.781 3.623-13.56 3.623m104.098-146.768c0-27.866-18.823-35.287-58.448-40.523-40.035-5.295-44.111-8.038-44.111-17.41 0-7.743 3.445-18.083 33.102-18.083 26.489 0 36.253 5.705 40.269 23.569.352 1.686 1.892 2.918 3.621 2.918h16.727c1.041 0 2.023-.454 2.727-1.188.703-.792 1.085-1.804.982-2.874-2.595-30.771-23.03-45.114-64.326-45.114-36.767 0-58.697 15.517-58.697 41.55 0 28.233 21.813 36.035 57.099 39.526 42.219 4.136 45.488 10.311 45.488 18.612 0 14.417-11.566 20.562-38.73 20.562-34.113 0-41.619-8.565-44.14-25.549a3.74 3.74 0 0 0-3.709-3.153h-16.668a3.7 3.7 0 0 0-3.724 3.711c0 21.735 11.816 47.636 68.241 47.636 40.871.015 64.297-16.074 64.297-44.19"/></svg>