<svg xmlns="http://www.w3.org/2000/svg" width="512" height="512" fill="none" viewBox="0 0 512 512"><style>@media (prefers-color-scheme:dark){path{fill:#fff}}</style><path fill="#000" d="M393.939 107.631a146.5 146.5 0 0 1-17.976 31.497 167.5 167.5 0 0 0-54.83-37.735 167.36 167.36 0 0 0-130.419-.33 167.5 167.5 0 0 0-55.019 37.457 167.7 167.7 0 0 0-36.118 55.943 167.9 167.9 0 0 0 3.374 130.53 167.7 167.7 0 0 0 38.96 53.998l6.223 5.538a167.27 167.27 0 0 0 82.825 37.58 167.2 167.2 0 0 0 90.226-11.328 167.4 167.4 0 0 0 70.993-56.89 167.7 167.7 0 0 0 30.8-85.659c4.84-42.226-7.951-96.221-29.039-160.601M166.113 380.376a14.24 14.24 0 0 1-6.854 4.627 14.24 14.24 0 0 1-15.162-4.529 14.27 14.27 0 0 1 4.187-21.64 14.23 14.23 0 0 1 15.754 1.466 14.584 14.584 0 0 1 2.075 20.076m226.789-50.188c-41.14 55.034-129.643 36.342-185.994 39.112 0 0-10.026.693-20.053 2.076 0 0 3.804-1.73 8.644-3.461 39.757-13.844 58.425-16.614 82.626-29.074 45.289-23.191 90.577-74.07 99.566-126.681-17.286 50.534-69.834 94.145-117.544 111.798-32.843 12.114-91.959 23.883-91.959 23.883l-2.421-1.385c-40.103-19.73-41.485-106.952 31.805-134.988 32.153-12.461 62.575-5.537 97.493-13.844 36.991-8.654 79.861-36.344 97.146-72.686 19.36 58.494 42.869 149.178.691 205.25"/></svg>