<svg xmlns="http://www.w3.org/2000/svg" width="512" height="512" fill="none" viewBox="0 0 512 512"><style>@media (prefers-color-scheme:dark){path{fill:#fff}}</style><path fill="#000" d="M202.525 385.709c-17.414-15.693-22.494-48.634-15.241-72.512 12.569 15.048 29.997 19.83 48.042 22.514 27.854 4.15 55.208 2.596 81.079-9.944 2.966-1.438 5.697-3.359 8.928-5.28 2.437 6.937 3.068 13.933 2.217 21.076-2.056 17.38-10.836 30.8-24.785 40.978-5.579 4.063-11.482 7.7-17.252 11.543-17.693 11.792-22.48 25.623-15.829 45.745l.647 2.171a46.35 46.35 0 0 1-20.659-17.424 48.5 48.5 0 0 1-7.988-26.62c-.059-4.693-.059-9.416-.705-14.051-1.556-11.278-6.93-16.324-17.046-16.617-10.381-.293-18.604 6.028-20.777 15.987-.176.777-.411 1.525-.661 2.42h.03zM115 320.516s47.573-23.1 95.292-23.1l35.988-110.953c1.351-5.368 5.286-9.006 9.72-9.006s8.369 3.638 9.72 9.006l35.973 110.953c56.529 0 95.307 23.1 95.307 23.1l-80.976-219.853C313.704 94.18 309.783 90 304.498 90h-96.996c-5.286 0-9.03 4.18-11.511 10.663z"/></svg>