<svg xmlns="http://www.w3.org/2000/svg" width="512" height="512" fill="none" viewBox="0 0 512 512"><style>@media (prefers-color-scheme:dark){path{fill:#fff}}</style><path fill="#000" d="m287.343 91.505 12.538 2.783 10.169 3.619 8.219 4.175 6.268 4.453 4.737 4.732 3.482 4.731 2.229 4.593 1.393 4.175.557 3.618.279 2.784-.139 1.809v74.315l-.697 8.767-1.811 7.654-2.925 6.402-3.622 5.288-4.179 4.315-4.597 3.479-4.876 2.644-4.875 1.948-4.597 1.392-4.18.974-3.621.557-2.926.278h-83.164l-9.612.696-8.219 1.948-6.965 3.062-5.711 3.757-4.597 4.454-3.762 4.871-2.786 5.01-2.089 5.149-1.393 4.871-.975 4.453-.558 3.757-.278 2.923v42.585h-31.065l-2.925-.418-3.901-.974-4.458-1.67-4.875-2.505-5.015-3.618-5.015-5.01-4.876-6.402-4.457-8.211-3.9-10.159-2.926-12.246-1.95-14.613L88 255.583l.836-16.979 2.229-14.473 3.343-12.108 4.458-9.88 5.015-7.933 5.572-6.123 5.85-4.593 5.851-3.34 5.572-2.226 5.015-1.392 4.458-.696 3.343-.139h2.229l.836.139h113.672v-11.551h-81.354l-.139-38.271-.279-5.149.697-4.731 1.532-4.315 2.368-3.896 3.483-3.619 4.318-3.2 5.294-2.784 6.129-2.505 7.105-2.087 8.079-1.67 8.916-1.392 9.89-.835 10.727-.557L254.746 89l17.692.696zm-87.761 27.555-3.204 4.593-1.114 5.705 1.114 5.706 3.204 4.732 4.597 3.061 5.712 1.253 5.711-1.253 4.597-3.061 3.204-4.732 1.114-5.706-1.114-5.705-3.204-4.593-4.597-3.062-5.711-1.252-5.712 1.252zm182.348 54.971 3.901.835 4.458 1.67 4.875 2.505 5.015 3.757 5.015 4.871 4.876 6.541 4.457 8.211 3.901 10.159 2.925 12.247 1.951 14.473.696 17.118-.836 17.117-2.229 14.473-3.343 11.969-4.458 9.881-5.015 7.932-5.572 6.262-5.85 4.593-5.851 3.34-5.572 2.227-5.015 1.252-4.458.696-3.343.278-2.229-.139H255.721v11.412h81.354l.139 38.41.279 5.01-.697 4.731-1.532 4.315-2.368 4.036-3.483 3.479-4.318 3.34-5.294 2.783-6.129 2.366-7.105 2.087-8.079 1.81-8.916 1.252-9.89.974-10.727.557-11.701.139-17.692-.557-14.905-1.948-12.538-2.783-10.169-3.479-8.219-4.175-6.268-4.593-4.737-4.732-3.482-4.731-2.229-4.593-1.393-4.175-.557-3.479-.279-2.783.139-1.809v-74.315l.697-8.907 1.811-7.515 2.925-6.402 3.622-5.288 4.179-4.453 4.597-3.34 4.876-2.784 4.875-1.948 4.597-1.392 4.18-.835 3.621-.556 2.926-.279 1.811-.139h81.353l9.612-.696 8.219-1.948 6.965-2.923 5.712-3.896 4.597-4.454 3.761-4.87 2.786-5.011 2.089-5.009 1.393-4.871.976-4.454.557-3.896.278-2.923v-42.585h29.115l1.95.139zm-90.129 198.312-3.204 4.593-1.114 5.706 1.114 5.706 3.204 4.592 4.597 3.201 5.711 1.113 5.712-1.113 4.597-3.201 3.204-4.592 1.114-5.706-1.114-5.706-3.204-4.593-4.597-3.201-5.712-1.113-5.711 1.113z"/></svg>