<svg xmlns="http://www.w3.org/2000/svg" width="512" height="512" fill="none" viewBox="0 0 512 512"><style>@media (prefers-color-scheme:dark){path{fill:#fff}}</style><path fill="#000" d="M362.296 227.717c-4.651 0-8.439 3.787-8.439 8.443v137.655H329.52l-46.708-97.155c6.666-7.542 9.518-18.005 7.342-28.013a32.01 32.01 0 0 0-18.055-22.748v-11.373c.17-4.02-1.997-8.102-5.661-10.37-1.948-1.155-4.039-1.728-6.165-1.728s-4.216.572-6.046 1.655c-3.783 2.339-5.949 6.422-5.774 10.727l-.004 10.094c-14.212 5.135-23.273 19.814-20.819 35.276a31.94 31.94 0 0 0 8.284 16.944l-44.945 96.691h-41.197c-15.332-.098-27.723-12.527-27.772-27.855V153.225c-.077 15.433 12.374 28.008 27.81 28.087q.928.004 1.857-.052h206.485s35.489-3.065 40.076 21.549c-3.488.402-6.23 3.249-6.23 6.845 0 9.961-8.109 18.061-18.243 18.061zm-28.67 170.798c3.287 6.772.461 14.925-6.311 18.21-1.815.881-3.733 1.253-5.627 1.298a13.6 13.6 0 0 1-4.472-.637c-.336-.109-.645-.292-.972-.427a13.6 13.6 0 0 1-3.189-1.849c-.346-.269-.693-.532-1.014-.837-1.155-1.097-2.204-2.341-2.94-3.86l-17.58-36.601-21.825-45.433a10.8 10.8 0 0 0-3.993-4.534 10.8 10.8 0 0 0-5.802-1.686h-.034a11.1 11.1 0 0 0-5.847 1.695 11.1 11.1 0 0 0-4.071 4.525l-21.158 45.433-17.254 37.05a13.6 13.6 0 0 1-11.182 8.113c-.876.074-1.733-.033-2.59-.122-.482-.05-.967-.074-1.436-.173-.684-.144-1.336-.389-1.988-.633-.422-.158-.859-.276-1.262-.475-.694-.341-1.327-.791-1.956-1.244-.304-.219-.64-.385-.927-.63a13.8 13.8 0 0 1-2.374-2.582 13.7 13.7 0 0 1-.991-13.793l11.859-25.512 45.758-98.441a25.15 25.15 0 0 1-9.903-16.292c-2.178-13.718 7.182-26.604 20.904-28.783v-15.769a4.96 4.96 0 0 1 2.344-4.417 4.86 4.86 0 0 1 4.959 0 4.96 4.96 0 0 1 2.344 4.417v16.226l.181.089a25.25 25.25 0 0 1 18.033 19.293 24.962 24.962 0 0 1-9.016 24.97l47.456 98.711zm-59.345-143.229c.059-8.514-6.797-15.462-15.313-15.519a15.7 15.7 0 0 0-11.001 4.506 15.42 15.42 0 0 0-4.523 10.803c-.059 8.513 6.797 15.461 15.313 15.519h.108c8.466 0 15.357-6.832 15.416-15.309m-14.382 73.876c-1.567.007-2.97.884-3.6 2.174l-19.783 42.479h47.238l-20.394-42.46a3.84 3.84 0 0 0-3.461-2.193m114.033-94.444-.18-.001h-11.451a1.451 1.451 0 0 0-1.332.89c-.073.175-.11.362-.11.552v180.746a1.44 1.44 0 0 0 1.353 1.442h11.811c13.809-.049 24.977-11.256 24.977-25.061v-183.63c0 13.842-11.222 25.062-25.068 25.062m-244.927-81.492v.266c.055 11.424 9.409 20.762 20.829 20.817q.916-.028 1.833-.048h15.804c2.761-18.41 10.652-35.35 22.938-48.803h-40.546c-12.976.044-23.765 8.962-26.874 20.965 3.385.497 6.016 3.29 6.016 6.803m88.755-40.568-14.517-25.06a3.07 3.07 0 0 1 0-3.065A3.34 3.34 0 0 1 205.859 83a3.07 3.07 0 0 1 2.614 1.532l14.698 25.421a90.92 90.92 0 0 1 74.479 0l14.607-25.421a3.067 3.067 0 0 1 5.281.934 3.07 3.07 0 0 1-.052 2.13l-14.426 25.06c23.345 12.776 39.173 35.615 43.375 61.626l-172.046-.019c4.206-26.001 20.032-48.833 43.371-61.605m75.302 36.683a7.22 7.22 0 0 0 2.232 5.048 7.22 7.22 0 0 0 5.15 1.991 7.22 7.22 0 0 0 5.101-2.111 7.22 7.22 0 0 0 2.112-5.1 7.29 7.29 0 0 0-4.513-6.703 7.3 7.3 0 0 0-7.929 1.565 7.22 7.22 0 0 0-2.153 5.31m-80.069-.094a7.23 7.23 0 0 0 2.168 5.077 7.22 7.22 0 0 0 5.124 2.056 7.11 7.11 0 0 0 5.139-2.073 7.295 7.295 0 0 0 2.174-8.268 7.31 7.31 0 0 0-7.166-4.663 7.3 7.3 0 0 0-5.286 2.653 7.2 7.2 0 0 0-2.153 5.218"/></svg>